
<svg xmlns="http://www.w3.org/2000/svg" version="1.1" xmlns:xlink="http://www.w3.org/1999/xlink" preserveAspectRatio="none" x="0px" y="0px" width="550px" height="400px" viewBox="0 0 550 400">
<defs>
<g id="Layer1_0_FILL">
<path fill="#000000" stroke="none" d="
M 221.15 290.6
L 230 323.55 262.95 314.7 254.1 281.75 221.15 290.6
M 196.05 281
L 177.6 285.95 182.55 304.4 201 299.45 196.05 281
M 115.2 168.55
L 118.85 185.6 163.45 176.1 159.8 159.05 115.2 168.55
M 188.3 146.25
L 180.55 117.3 151.6 125.05 159.4 154 188.3 146.25
M 341.05 181.5
L 343.95 193.3 382.6 183 379.85 171.25 341.05 181.5
M 387.95 136.45
L 372.95 140.45 368.55 124.05 345.15 130 333.95 89.65 293.6 99.4 280.9 55.3 240.6 69.5 232.35 45.6 173.25 63.8 197.8 150.2 173.35 156.9 178.25 178.8 122.55 191.25 147.2 287.65 199.6 274.15 203.55 288 261.15 272.25 277.95 328 368.2 302.75 358.15 263.05 395.95 251.05 376.55 189.8 373.45 190.6 373.4 190.6 338.45 199.5 332.7 178.2 395.25 161.4 387.95 136.45
M 386.55 57.25
L 335.8 70.85 349.4 121.6 400.15 108 386.55 57.25 Z"/>
</g>

<g id="Layer0_0_FILL">
<path fill="#FFFFFF" stroke="none" d="
M 267.75 209.2
Q 268.75 201.35 277.85 201.2 263.45 192.55 256.95 206.6 252.45 206.75 248.15 208.8 246.65 209.45 245.4 210.35 242.3 212.9 245.55 214.95
L 249.4 217.15
Q 251 218.25 249.7 219.95
L 246.45 223.4
Q 243.95 226 247.2 227.5
L 250.6 228.7
Q 251.9 229.75 250.9 231.55
L 248.6 235
Q 247 237.7 249.6 238.55
L 255.9 240.25
Q 257.4 240.95 256.35 242.6
L 253.7 246.6
Q 251.9 249.9 256.65 250.2 261.4 250.4 266.1 248.4 274.4 260.4 288.1 248 277.25 250.4 275 241.4 276.8 238.85 278 235.6 281 227.1 277.15 219 274 212.4 267.75 209.2
M 265.5 216.3
Q 266.55 218.45 265.8 220.7 265 222.95 262.85 224 260.75 225 258.4 224.2 256.1 223.4 255.15 221.25 254.15 219.15 254.95 216.8 255.8 214.55 257.9 213.6 260.05 212.55 262.3 213.3 264.5 214.15 265.5 216.3
M 261.1 237.95
Q 260.5 236.55 260.95 235.15 261.45 233.75 262.9 233.15 264.25 232.4 265.7 232.95 267.1 233.4 267.8 234.75 267.95 235.1 268.1 235.5 268.25 236.5 267.95 237.5 267.35 238.9 265.95 239.65 264.6 240.25 263.15 239.65 261.75 239.3 261.1 237.95
M 277.2 136.3
Q 270.8 130.55 261.7 130.55 252.65 130.55 246.15 136.3 239.75 142.1 239.75 150.25 239.75 158.4 246.15 164.2 247.15 165.05 248.15 165.8 246 169.55 245.3 171.35 244.4 173.8 246.8 174.85 249.15 175.95 251.5 176.95 253.75 177.9 255.1 173.85 254.5 178.1 256.45 178.6 256.6 178.65 257.9 178.95 259.15 179.2 263.3 178.9 264.95 178.55 264.3 174.55 265.15 178.85 267.35 178.5 269.55 178.15 272.3 176.45 274.1 175.35 273.2 173.1 272.25 170.85 271.35 168.05 274.5 166.65 277.2 164.2 283.65 158.4 283.65 150.25 283.65 142.1 277.2 136.3
M 274.95 145.1
Q 275.15 145.2 275.25 145.25 278.3 146.7 279.75 149.9 281.35 153.25 280.3 156.65 279.25 160 276.2 161.4 274.3 162.3 272.25 162.05 271.1 161.85 270 161.35 266.75 159.95 265.2 156.6 263.65 153.2 264.65 149.85 265.7 146.45 268.7 145.05 271.75 143.7 274.95 145.1
M 254.4 153.3
Q 254.7 155.65 253.2 157.75 251.8 159.8 249.45 160.3 247.15 160.9 245.3 159.6 243.4 158.3 243.15 155.9 242.9 153.5 244.35 151.45 245.85 149.4 248.1 148.85 250.45 148.3 252.35 149.65 254.2 150.95 254.4 153.3
M 261.85 163
Q 262.5 163.7 262.85 164.85 263.15 166 262.95 166.9 262.65 167.85 262.1 168 261.55 168.15 260.9 167.55 260.85 167.5 260.8 167.45 260.2 166.85 259.95 165.8 259.45 166.6 258.85 167 258.2 167.4 257.8 167.15 257.35 166.9 257.35 166.15 257.35 165.4 257.8 164.6 258.3 163.8 258.9 163.4 259.5 163.05 259.9 163.2 260.15 162.65 260.6 162.5 261.2 162.4 261.85 163
M 305.3 143.95
Q 308.15 141.6 311.8 142.6 313.8 143.1 319.15 145.7
L 326.15 133.5
Q 321.9 129.55 317.8 128.4 313.8 127.35 310.5 128.65 307.3 129.9 303.35 134.4
L 304.95 124.3 287.95 121.6 284.65 174.35 293.5 175.75 297.95 159.3
Q 301.2 147.5 305.3 143.95
M 239.45 186.2
L 218.9 182.7 234.75 259.25 243.9 257.05 243.4 249
Q 244.45 249.2 246 247.95
L 250.5 244.2
Q 253.1 241.85 249.9 241.3
L 242.85 239.9 242.6 236.5 245.7 233.1
Q 248 230.35 245.05 229.2
L 244.9 229.15 242.1 227.95 241.75 222.9 244.8 220.35
Q 246.8 218.65 245.05 217.75
L 241.35 216.25 239.45 186.2
M 198.8 192.55
Q 192.65 191.65 181.25 193.95 169.5 196.45 163.15 201.2 155.05 207.4 152.2 216.7 149.25 225.95 151.6 237.25 153.8 247.95 159.85 255.25 165.8 262.6 174.35 265.15 182.9 267.75 195.15 265.2 205.05 263.15 211.85 259.35 218.55 255.5 226.7 247.1
L 220.6 217.8 187.75 224.65 190.7 238.9 204.9 235.95 206.3 242.5
Q 202.65 245.75 199.65 247.5 196.6 249.25 193.05 249.95 185.6 251.55 180.4 247.6 175.15 243.65 172.8 232.55 170.65 222 173.85 216.35 176.95 210.6 183.9 209.15 188.6 208.2 192.05 209.65 195.5 211.1 197.55 214.7
L 217.25 206.75
Q 214.05 200.5 209.45 196.9 204.75 193.4 198.8 192.55
M 257.8 98.7
L 257.8 73.35 202.75 90.7 224.25 179.05 235.45 175.05 229.3 125.45 256.7 125.45 254.85 111.35 227.9 114.85 226.5 105.35 257.8 98.7
M 344.15 216.95
L 337.8 213.3 328.15 227.9 323.6 226.25 319.4 261.35
Q 316.15 264.1 313.45 264.45 310.85 264.75 307.95 263.05 303.45 260.45 300.4 257.15
L 294.95 269.7
Q 302 275.1 305.7 277.2 314.65 282.4 321.35 281 326.1 279.85 333.25 272.05
L 370.6 231.45 361.7 227.1 336.35 251.45 344.15 216.95
M 324.2 222.8
L 331.2 210.6
Q 326.95 206.65 322.85 205.5 318.85 204.45 315.55 205.75 312.35 207 308.4 211.5
L 310 201.4 293 198.7 289.7 251.45 298.55 252.85 303 236.4
Q 306.25 224.6 310.35 221.05 313.2 218.7 316.85 219.7 318.85 220.2 324.2 222.8 Z"/>
</g>
</defs>

<g transform="matrix( 1, 0, 0, 1, 0,0) ">
<use xlink:href="#Layer1_0_FILL"/>
</g>

<g transform="matrix( 1, 0, 0, 1, 0,0) ">
<use xlink:href="#Layer0_0_FILL"/>
</g>
</svg>
